<?xml version="1.0" encoding="UTF-8"?>
<svg width="40px" height="43px" viewBox="0 0 40 43" version="1.1" xmlns="http://www.w3.org/2000/svg" xmlns:xlink="http://www.w3.org/1999/xlink">
    <title>PicaTransparente</title>
    <g id="Symbols" stroke="none" stroke-width="1" fill="none" fill-rule="evenodd">
        <g id="back" transform="translate(-373.000000, -17.000000)" fill="#FFFFFF" fill-rule="nonzero" stroke="#B00000">
            <g id="Path" transform="translate(374.000000, 18.000000)">
                <path d="M19.7487685,41 C19.9359606,41 20.2323481,40.984781 20.637931,40.954343 C21.043514,40.923905 21.4802956,40.893467 21.9482759,40.863029 C22.4162562,40.8325909 22.8530378,40.7869339 23.2586207,40.7260579 C23.6642036,40.6651819 23.9605911,40.6043059 24.1477833,40.5434298 L24.1477833,40.1781737 C24.1477833,39.9955457 24.0229885,39.7216036 23.773399,39.3563474 C23.5238095,38.9910913 23.227422,38.5953972 22.8842365,38.169265 C22.5410509,37.7431329 22.229064,37.3474388 21.9482759,36.9821826 C21.6674877,36.6169265 21.4958949,36.3429844 21.4334975,36.1603563 C21.0591133,35.3080921 20.6847291,34.1818857 20.3103448,32.7817372 C19.9359606,31.3815887 19.7487685,30.2553823 19.7487685,29.403118 C19.998358,29.403118 20.3883415,29.6770601 20.9187192,30.2249443 C21.4490969,30.7728285 22.1042693,31.3663697 22.8842365,32.0055679 C23.6642036,32.6447661 24.5377668,33.2230883 25.5049261,33.7405345 C26.4720854,34.2579807 27.5172414,34.5167038 28.6403941,34.5167038 C30.2627258,34.5167038 31.6666667,34.1362287 32.8522167,33.3752784 C34.0377668,32.6143281 35.0049261,31.6403118 35.7536946,30.4532294 C36.5024631,29.266147 37.0640394,27.9420935 37.4384236,26.481069 C37.8128079,25.0200445 38,23.6198961 38,22.2806236 C38,20.3325909 37.6100164,18.6585004 36.8300493,17.2583519 C36.0500821,15.8582034 35.0517241,14.579807 33.8349754,13.4231626 C32.6182266,12.2665182 31.2766831,11.2011878 29.8103448,10.2271715 C28.3440066,9.25315516 26.9244663,8.1878248 25.5517241,7.0311804 C24.3661741,6.17891611 23.227422,5.08314774 22.135468,3.74387528 C21.043514,2.40460282 20.091954,1.18708241 19.2807882,0.0913140312 L19,0 C18.9376026,0 18.9064039,0.0152190052 18.9064039,0.0456570156 C18.9064039,0.076095026 18.8752053,0.0913140312 18.8128079,0.0913140312 L18.7192118,0.0913140312 C17.4712644,1.30883445 16.4417077,2.52635486 15.6305419,3.74387528 C14.819376,4.96139569 13.6338259,6.17891611 12.0738916,7.39643653 C10.7635468,8.4922049 9.3908046,9.51187825 7.95566502,10.4554566 C6.52052545,11.3990349 5.21018062,12.4187082 4.02463054,13.5144766 C2.83908046,14.610245 1.87192118,15.8429844 1.12315271,17.2126949 C0.374384236,18.5824053 0,20.2108389 0,22.0979955 C0,23.498144 0.187192118,24.9287305 0.561576355,26.389755 C0.935960591,27.8507795 1.51313629,29.174833 2.29310345,30.3619154 C3.07307061,31.5489978 4.05582923,32.5382331 5.24137931,33.3296214 C6.42692939,34.1210097 7.83087028,34.5167038 9.45320197,34.5167038 C10.6387521,34.5167038 11.6059113,34.3340757 12.3546798,33.9688196 C13.1034483,33.6035635 13.7898194,33.1469933 14.4137931,32.5991091 C15.0377668,32.0512249 15.6461412,31.4424647 16.2389163,30.7728285 C16.8316913,30.1031923 17.5336617,29.4639941 18.3448276,28.8552339 L18.3448276,29.22049 C18.3448276,31.4729027 18.0172414,33.3752784 17.362069,34.9276169 C16.7068966,36.4799555 15.6929392,38.077951 14.320197,39.7216036 L14.320197,40.1781737 C14.3825944,40.1781737 14.5229885,40.2390497 14.7413793,40.3608018 C14.9597701,40.4825538 15.1313629,40.5434298 15.2561576,40.5434298 L15.6305419,40.5434298 C15.7553366,40.5434298 16.0205255,40.5738679 16.4261084,40.6347439 C16.8316913,40.6956199 17.2528736,40.7564959 17.6896552,40.8173719 C18.1264368,40.878248 18.547619,40.923905 18.953202,40.954343 C19.3505122,40.9841601 19.3503161,41 19.7487685,41 Z"></path>
            </g>
        </g>
    </g>
</svg>