<?xml version="1.0" encoding="UTF-8"?>
<svg width="34px" height="38px" viewBox="0 0 34 38" version="1.1" xmlns="http://www.w3.org/2000/svg" xmlns:xlink="http://www.w3.org/1999/xlink">
    <title>diamante rojo</title>
    <g id="Symbols" stroke="none" stroke-width="1" fill="none" fill-rule="evenodd">
        <g id="back" transform="translate(-27.000000, -26.000000)" fill="#B00000" fill-rule="nonzero">
            <g id="Path" transform="translate(27.000000, 26.000000)">
                <path d="M17.8438469,38 C17.9024474,38 17.975698,37.9412793 18.0635988,37.823838 C18.1514995,37.7063966 18.2540503,37.5889553 18.3712513,37.471514 C19.5432609,36.1209386 20.7152706,34.7850433 21.8872802,33.4638282 C23.0592899,32.1426132 24.2312996,30.8360782 25.4033092,29.5442235 C26.7511203,28.0174861 28.0842813,26.5494693 29.4027921,25.1401732 C30.721303,23.7308772 32.0251637,22.2628604 33.3143744,20.736123 C33.6073768,20.3250783 33.8124785,19.8846733 33.9296794,19.4149079 C34.0468804,19.0038632 34.0175801,18.6221788 33.8417787,18.2698548 C33.6659772,17.9175308 33.4315753,17.5945671 33.1385729,17.3009638 C33.0799724,17.2422431 32.9334712,17.0660811 32.6990693,16.7724777 C32.4646674,16.4788744 32.2009652,16.185271 31.9079628,15.8916677 C31.6149604,15.5980643 31.3366081,15.304461 31.0729059,15.0108576 C30.8092037,14.7172543 30.6187522,14.4823716 30.5015512,14.3062096 L30.5015512,14.3062096 L30.1499483,13.9538856 C28.2747329,11.7812208 26.3995174,9.63791631 24.524302,7.52397218 C22.6490865,5.41002806 20.7738711,3.32544427 18.8986556,1.27022081 L18.8986556,1.27022081 L18.5470527,0.917896792 L18.5470527,0.917896792 L18.2833506,0.653653776 C17.9903482,0.360050425 17.8145467,0.21324875 17.7559462,0.21324875 C17.6973457,0.21324875 17.6240951,0.183888414 17.5361944,0.125167744 C17.4482937,0.0664470741 17.3750431,0.0370867391 17.3164426,0.0370867391 C16.7304378,-0.0803546013 16.2176836,0.0811272417 15.7781799,0.521532268 C15.3386763,0.961937294 14.9724233,1.38766215 14.6794209,1.79870684 C11.046191,5.73299174 7.41296105,9.81407832 3.77973113,14.0419666 C3.13512582,14.6878939 2.50517063,15.3485015 1.88986556,16.0237892 C1.2745605,16.6990769 0.703205791,17.3890448 0.175801448,18.0936928 C0.117200965,18.0936928 0.0879007239,18.1524135 0.0879007239,18.2698548 L0.0879007239,18.2698548 L0.0879007239,18.3579358 C0.0293002413,18.5340978 0,18.7983409 0,19.1506649 C0,19.5029889 0.0293002413,19.7378716 0.0879007239,19.8553129 C0.0879007239,19.9140336 0.131851086,20.0461551 0.21975181,20.2516774 C0.307652534,20.4571998 0.410203378,20.6186816 0.527404343,20.736123 C0.586004826,20.8535643 0.849706998,21.1618478 1.31851086,21.6609735 C1.78731472,22.1600992 2.08031713,22.4683827 2.1975181,22.5858241 L2.28053545,22.6739051 C2.35215826,22.7521993 2.4563369,22.8696407 2.59307135,23.0262291 C2.79817304,23.2611118 2.93002413,23.4079135 2.98862461,23.4666341 C3.04722509,23.5840755 3.10582558,23.6721565 3.16442606,23.7308772 L3.16442606,23.7308772 L3.39882799,23.9657598 L3.39882799,23.9657598 C4.76617258,25.4533501 6.10910031,26.9311537 7.42761117,28.3991704 C8.74612203,29.8671872 10.079283,31.3645643 11.4270941,32.8913017 C12.1302999,33.7133911 12.8042054,34.5061201 13.4488108,35.2694888 C14.0934161,36.0328575 14.8259221,36.7668659 15.6463289,37.471514 C15.7049293,37.5889553 15.8074802,37.7063966 15.9539814,37.823838 C16.1004826,37.9412793 16.2030334,38 16.2616339,38 L16.2616339,38 L17.8438469,38 Z"></path>
            </g>
        </g>
    </g>
</svg>