<?xml version="1.0" encoding="UTF-8"?>
<svg width="44px" height="41px" viewBox="0 0 44 41" version="1.1" xmlns="http://www.w3.org/2000/svg" xmlns:xlink="http://www.w3.org/1999/xlink">
    <title>corazonRojo</title>
    <g id="Symbols" stroke="none" stroke-width="1" fill="none" fill-rule="evenodd">
        <g id="back" transform="translate(-39.000000, -177.000000)" fill="#B00000" fill-rule="nonzero">
            <g id="Path" transform="translate(39.000000, 177.000000)">
                <path d="M22,41 L22,40.9063927 C22.0606061,40.8439878 22.0909091,40.781583 22.0909091,40.7191781 C23.4848485,38.347793 25.1818182,36.1012177 27.1818182,33.9794521 C28.8181818,32.2945205 30.6212121,30.8436073 32.5909091,29.6267123 C34.5606061,28.4098174 36.3939394,27.1305175 38.0909091,25.7888128 C39.7878788,24.4471081 41.1969697,22.8869863 42.3181818,21.1084475 C43.4393939,19.3299087 44,17.0365297 44,14.2283105 C44,12.6681887 43.7878788,11.0456621 43.3636364,9.36073059 C42.9393939,7.67579909 42.3030303,6.16248097 41.4545455,4.82077626 C40.6060606,3.47907154 39.5151515,2.37138508 38.1818182,1.49771689 C36.8484848,0.624048706 35.2727273,0.187214612 33.4545455,0.187214612 C31.5151515,0.187214612 29.7878788,0.608447489 28.2727273,1.45091324 C26.7575758,2.293379 25.3636364,3.46347032 24.0909091,4.96118721 C23.6060606,5.52283105 23.2424242,6.13127854 23,6.78652968 L22.7272727,7.41577879 C22.5252525,7.81794351 22.2828283,8.18543886 22,8.51826484 C21.9393939,8.51826484 21.9090909,8.4870624 21.9090909,8.42465753 C21.8484848,8.42465753 21.8181818,8.40905632 21.8181818,8.37785388 C21.8181818,8.34665145 21.7878788,8.33105023 21.7272727,8.33105023 C21.7272727,8.20624049 21.6363636,7.94101979 21.4545455,7.53538813 C21.2727273,7.12975647 21.1212121,6.86453577 21,6.73972603 C21,6.61491629 20.8787879,6.3652968 20.6363636,5.99086758 C20.3939394,5.61643836 20.2424242,5.36681887 20.1818182,5.24200913 C19.0909091,3.55707763 17.7272727,2.26217656 16.0909091,1.35730594 C14.4545455,0.452435312 12.7272727,0 10.9090909,0 C8.48484848,0 6.45454545,0.748858447 4.81818182,2.24657534 C3.18181818,3.74429224 1.90909091,5.58523592 1,7.76940639 C0.939393939,7.89421613 0.848484848,8.11263318 0.727272727,8.42465753 C0.606060606,8.73668189 0.5,9.07990868 0.409090909,9.4543379 C0.318181818,9.82876712 0.227272727,10.1719939 0.136363636,10.4840183 C0.0454545455,10.7960426 0,11.0456621 0,11.2328767 L0,11.2328767 L0,17.5981735 C0,17.7229833 0.0909090909,18.06621 0.272727273,18.6278539 C0.454545455,19.1894977 0.606060606,19.5951294 0.727272727,19.8447489 C1.45454545,21.4672755 2.39393939,22.8401826 3.54545455,23.9634703 C4.6969697,25.086758 5.93939394,26.1164384 7.27272727,27.0525114 C8.60606061,27.9885845 9.95454545,28.8934551 11.3181818,29.7671233 C12.6818182,30.6407915 13.969697,31.6392694 15.1818182,32.7625571 C16.5757576,33.9482496 17.7878788,35.1807458 18.8181818,36.4600457 C19.8484848,37.7393455 20.8181818,39.1590563 21.7272727,40.7191781 L21.7272727,40.7191781 L22,41 Z"></path>
            </g>
        </g>
    </g>
</svg>