<?xml version="1.0" encoding="UTF-8"?>
<svg width="142px" height="67px" viewBox="0 0 142 67" version="1.1" xmlns="http://www.w3.org/2000/svg" xmlns:xlink="http://www.w3.org/1999/xlink">
    <title>Group</title>
    <g id="App" stroke="none" stroke-width="1" fill="none" fill-rule="evenodd">
        <g id="prediseñado" transform="translate(-124.000000, -55.000000)" fill-rule="nonzero">
            <g id="Group" transform="translate(124.000000, 55.000000)">
                <polygon id="Path" fill="#FFFFFF" points="9.28266333 18 9.28266333 4.14 12.752 4.14 12.752 2.27373675e-13 0.752 2.27373675e-13 0.752 4.14 4.22133667 4.14 4.22133667 18"></polygon>
                <path d="M23.974561,18 C24.3607398,18 24.7723252,17.9410029 25.2093171,17.8230088 C25.6463089,17.7050147 26.0782195,17.5368732 26.5050488,17.3185841 C26.931878,17.100295 27.3409228,16.8377581 27.7321829,16.5309735 C28.1234431,16.2241888 28.4689715,15.8731563 28.7687683,15.4778761 C29.068565,15.0825959 29.3073862,14.6548673 29.4852317,14.1946903 C29.6630772,13.7345133 29.752,13.2448378 29.752,12.7256637 L29.752,12.7256637 L29.752,2.27373675e-13 L24.3099268,2.27373675e-13 L24.3099268,12.5663717 C24.2896016,12.5899705 24.2743577,12.619469 24.2641951,12.6548673 C24.2438699,12.6784661 24.2311667,12.7050147 24.2260854,12.7345133 C24.2210041,12.7640118 24.2133821,12.7846608 24.2032195,12.7964602 C23.9898049,13.2212389 23.7103333,13.5280236 23.3648049,13.7168142 C23.0192764,13.9056047 22.6483415,14 22.252,14 C21.5101301,14 20.9105366,13.6578171 20.4532195,12.9734513 C20.4024065,12.9144543 20.3465122,12.8112094 20.2855366,12.6637168 C20.224561,12.5162242 20.1940732,12.4247788 20.1940732,12.3893805 L20.1940732,12.3893805 L20.1940732,2.27373675e-13 L14.752,2.27373675e-13 L14.752,12.5663717 C14.752,13.3687316 14.9374675,14.100295 15.3084024,14.7610619 C15.6793374,15.4218289 16.1468171,15.9941003 16.7108415,16.4778761 C17.2748659,16.9616519 17.8947846,17.3362832 18.5705976,17.6017699 C19.2464106,17.8672566 19.8942764,18 20.5141951,18 L20.5141951,18 L23.974561,18 Z" id="Path" fill="#FFFFFF"></path>
                <path d="M46.3050839,18 C46.85109,18 47.4147907,17.9561831 47.996186,17.8685492 C48.5775814,17.7809153 49.1438099,17.6407011 49.6948716,17.4479065 C50.2459333,17.255112 50.7666613,17.006816 51.2570556,16.7030185 C51.7474499,16.399221 52.1771769,16.0253165 52.5462366,15.5813048 C52.9152963,15.1372931 53.2085217,14.6202532 53.425913,14.030185 C53.6433043,13.4401168 53.752,12.7711782 53.752,12.023369 C53.752,11.2638754 53.6382487,10.6153846 53.4107462,10.0778968 C53.1832437,9.54040896 52.879907,9.08471276 52.5007361,8.71080818 C52.1215652,8.3369036 51.681727,8.030185 51.1812214,7.79065239 C50.6807159,7.55111977 50.1599879,7.3466407 49.6190374,7.17721519 C49.078087,7.00778968 48.5346087,6.8617332 47.9886026,6.73904576 C47.4425966,6.61635833 46.9319798,6.49074976 46.4567523,6.36222006 C46.3151951,6.3271665 46.1382487,6.27458617 45.925913,6.20447907 C45.7135774,6.13437196 45.5062973,6.04381694 45.3040728,5.93281402 C45.1018483,5.8218111 44.9274297,5.68451801 44.780817,5.52093476 C44.6342042,5.35735151 44.5608979,5.1587147 44.5608979,4.92502434 C44.5608979,4.66796495 44.624093,4.46056475 44.7504833,4.30282376 C44.8768736,4.14508277 45.0361254,4.02239533 45.2282386,3.93476144 C45.4203519,3.84712756 45.6200485,3.78870497 45.8273286,3.75949367 C46.0346087,3.73028238 46.2241941,3.71567673 46.3960849,3.71567673 C46.7196441,3.71567673 47.007814,3.74780915 47.2605945,3.812074 C47.5133751,3.87633885 47.7484611,3.97857838 47.9658524,4.1187926 C48.1832437,4.25900682 48.387996,4.43427459 48.5801092,4.64459591 C48.7722224,4.85491723 48.9693913,5.10613437 49.1716158,5.39824732 L49.2322831,5.46835443 L53.4183296,5.46835443 C53.3273286,4.87244401 53.2337998,4.39045764 53.1377432,4.02239533 C53.0416866,3.65433301 52.9683802,3.41772152 52.9178241,3.31256086 C52.6650435,2.79844206 52.3515956,2.34858812 51.9774803,1.96299903 C51.603365,1.57740993 51.1913327,1.25316456 50.7413832,0.990262902 C50.2914338,0.727361246 49.8162063,0.517039922 49.3157007,0.359298929 C48.8151951,0.201557936 48.322273,0.0876338851 47.8369343,0.017526777 L47.5790981,0.017526777 C47.4577634,0.017526777 47.3288453,0.0146056475 47.1923438,0.00876338851 C47.0558423,0.0029211295 46.9269242,2.27373675e-13 46.8055895,2.27373675e-13 L46.5629201,2.27373675e-13 C46.0472477,2.27373675e-13 45.5164085,0.0379746835 44.9704024,0.113924051 C44.4243964,0.189873418 43.8910293,0.318403116 43.3703013,0.499513145 C42.8495733,0.680623174 42.3541234,0.914313535 41.8839515,1.20058423 C41.4137796,1.48685492 41.004275,1.84031159 40.6554378,2.26095424 C40.3066006,2.68159688 40.028542,3.16942551 39.8212619,3.72444012 C39.6139818,4.27945472 39.5103418,4.91918208 39.5103418,5.6436222 C39.5103418,6.26290166 39.6291486,6.83544304 39.8667624,7.36124635 C40.1043761,7.88704966 40.4127685,8.35735151 40.7919393,8.7721519 C41.1711102,9.18695229 41.603365,9.5345667 42.0887037,9.81499513 C42.5740425,10.0954236 43.0593812,10.3057449 43.5447199,10.4459591 L47.2302609,11.4975657 C47.3617068,11.5326193 47.5108473,11.5851996 47.6776825,11.6553067 C47.8445177,11.7254138 48.0012417,11.81889 48.1478544,11.9357352 C48.2944671,12.0525803 48.4183296,12.1869523 48.5194419,12.338851 C48.6205541,12.4907498 48.6711102,12.6601753 48.6711102,12.8471276 C48.6711102,13.127556 48.5927482,13.3466407 48.4360243,13.5043817 C48.2793003,13.6621227 48.0897149,13.7760467 47.8672679,13.8461538 C47.644821,13.916261 47.4122629,13.9571568 47.1695935,13.9688413 C46.9269242,13.9805258 46.7246997,13.9863681 46.5629201,13.9863681 C46.2494722,13.9863681 45.9461355,13.962999 45.65291,13.916261 C45.3596845,13.8695229 45.0841537,13.7848101 44.8263175,13.6621227 C44.5684813,13.5394352 44.3308675,13.3670886 44.1134762,13.1450828 C43.8960849,12.9230769 43.7064995,12.6426485 43.5447199,12.3037975 C43.5346087,12.2804284 43.5118584,12.224927 43.4764692,12.1372931 C43.4410799,12.0496592 43.413274,12 43.3930516,11.9883155 L43.3323842,11.9883155 C43.3121618,11.9883155 43.2944671,11.9853944 43.2793003,11.9795521 C43.2641335,11.9737098 43.2514944,11.9707887 43.2413832,11.9707887 C43.2211608,11.9707887 43.1882993,11.9737098 43.1427988,11.9795521 C43.0972983,11.9853944 43.0694924,11.9883155 43.0593812,11.9883155 L38.7671668,11.9707887 C38.7570556,11.9824732 38.752,12 38.752,12.023369 L38.752,12.0934761 C38.752,12.1986368 38.7722224,12.3534567 38.8126673,12.5579357 C38.8531122,12.7624148 38.9036684,12.9727361 38.9643357,13.1888997 C39.025003,13.4050633 39.0856704,13.6124635 39.1463377,13.8111003 C39.2070051,14.0097371 39.2575612,14.1499513 39.2980061,14.2317429 C39.6417877,14.9561831 40.0765703,15.5579357 40.6023539,16.037001 C41.1281375,16.5160662 41.7044772,16.9016553 42.3313731,17.1937683 C42.958269,17.4858812 43.6129707,17.6932814 44.2954783,17.8159688 C44.9779858,17.9386563 45.6478544,18 46.3050839,18 Z" id="Path" fill="#FFFFFF"></path>
                <polygon id="Path" fill="#FFFFFF" points="60.9822158 18 60.9822158 10.6486486 64.4642302 10.6486486 64.4642302 18 68.752 18 68.752 2.27373675e-13 64.4642302 2.27373675e-13 64.4642302 6.72072072 60.9822158 6.72072072 60.9822158 2.27373675e-13 56.752 2.27373675e-13 56.752 18"></polygon>
                <path d="M77.0122114,4.54747351e-13 C78.0617741,4.54747351e-13 79.04088,0.240687679 79.9495292,0.722063037 C80.8581783,1.2034384 81.652639,1.85386819 82.3329111,2.67335244 C83.0131832,3.49283668 83.5476827,4.44985673 83.9364096,5.54441261 C84.3251365,6.63896848 84.5195,7.79369628 84.5195,9.00859599 C84.5195,10.2234957 84.3251365,11.3753582 83.9364096,12.4641834 C83.5476827,13.5530086 83.0131832,14.5071633 82.3329111,15.3266476 C81.652639,16.1461318 80.8581783,16.7965616 79.9495292,17.277937 C79.04088,17.7593123 78.0617741,18 77.0122114,18 C75.9626487,18 74.9835428,17.7593123 74.0748936,17.277937 C73.1662444,16.7965616 72.3742133,16.1461318 71.6988003,15.3266476 C71.0233873,14.5071633 70.4913173,13.5530086 70.1025904,12.4641834 C69.7138635,11.3753582 69.5195,10.2234957 69.5195,9.00859599 C69.5195,7.79369628 69.7138635,6.63896848 70.1025904,5.54441261 C70.4913173,4.44985673 71.0233873,3.49283668 71.6988003,2.67335244 C72.3742133,1.85386819 73.1662444,1.2034384 74.0748936,0.722063037 C74.9835428,0.240687679 75.9626487,4.54747351e-13 77.0122114,4.54747351e-13 Z M77.0123797,5 C76.5282025,5 76.1081076,5.1456044 75.7520949,5.43681319 C75.3960823,5.72802198 75.1041519,6.09340659 74.8763038,6.53296703 C74.6484557,6.97252747 74.479943,7.45879121 74.3707658,7.99175824 C74.2615886,8.52472527 74.207,9.02747253 74.207,9.5 C74.207,9.98351648 74.2615886,10.489011 74.3707658,11.0164835 C74.479943,11.543956 74.6484557,12.0274725 74.8763038,12.467033 C75.1041519,12.9065934 75.3960823,13.271978 75.7520949,13.5631868 C76.1081076,13.8543956 76.5282025,14 77.0123797,14 C77.5060506,14 77.9308924,13.8543956 78.2869051,13.5631868 C78.6429177,13.271978 78.9348481,12.9038462 79.1626962,12.4587912 C79.3905443,12.0137363 79.559057,11.5274725 79.6682342,11 C79.7774114,10.4725275 79.832,9.97252747 79.832,9.5 C79.832,9.02747253 79.7774114,8.52472527 79.6682342,7.99175824 C79.559057,7.45879121 79.3905443,6.97252747 79.1626962,6.53296703 C78.9348481,6.09340659 78.6429177,5.72802198 78.2869051,5.43681319 C77.9308924,5.1456044 77.5060506,5 77.0123797,5 Z" id="Combined-Shape" fill="#FFFFFF"></path>
                <path d="M93.0139529,18 L95.5695084,8.298 L95.6469495,8.388 L97.9701818,18 L102.477253,18 L106.752,2.27373675e-13 L101.811259,2.27373675e-13 L100.045603,9.378 L97.6913939,2.27373675e-13 L93.5095758,2.27373675e-13 L91.3257374,9.198 L91.2482963,9.288 L88.925064,2.27373675e-13 L83.752,2.27373675e-13 L83.752,0.09 C83.752,0.114 83.7623255,0.168 83.7829764,0.252 C83.8036274,0.336 83.8191156,0.39 83.8294411,0.414 L83.8294411,0.414 L88.4913939,18 L93.0139529,18 Z" id="Path" fill="#FFFFFF"></path>
                <path d="M122.240862,4.54747351e-13 L122.46012,0.00775764794 C122.968618,0.043960005 123.455388,0.206870612 123.920429,0.496489468 C124.451905,0.827482447 124.929201,1.25175527 125.352317,1.76930792 C125.775434,2.28686058 126.141791,2.8555667 126.451389,3.47542628 C126.760986,4.09528586 126.993184,4.7001003 127.147983,5.28986961 C127.292462,5.84353059 127.390501,6.39719157 127.442101,6.95085256 C127.4937,7.50451354 127.5195,8.07021063 127.5195,8.64794383 C127.5195,9.57472417 127.447261,10.4924774 127.302782,11.4012036 C127.158303,12.3099298 126.918365,13.1584754 126.582967,13.9468405 C126.24757,14.7352056 125.803814,15.439318 125.251698,16.0591775 C124.699583,16.6790371 124.010728,17.1574724 123.185135,17.4944835 C123.133535,17.5185557 123.063876,17.5456369 122.976156,17.5757272 C122.888437,17.6058175 122.798138,17.6389168 122.705259,17.6750251 C122.612379,17.7111334 122.52982,17.7442327 122.45758,17.774323 C122.385341,17.8044132 122.338901,17.8254764 122.318262,17.8375125 C122.276982,17.8495486 122.222802,17.8645938 122.155723,17.8826479 L122.155723,17.8826479 L121.954485,17.9368104 L121.857735,17.9616349 L121.857735,17.9616349 L121.768726,17.9819458 C121.711966,17.9939819 121.678427,18 121.668107,18 L121.668107,18 L112.5195,18 L112.5195,4.54747351e-13 L122.240862,4.54747351e-13 Z M118.994198,4 L118.824258,4 L118.723357,4.00235849 L118.723357,4.00235849 L118.618915,4.00943396 C118.548106,4.01572327 118.486739,4.01886792 118.434813,4.01886792 L118.434813,4.01886792 L118.342763,4.01886792 L118.1445,4.09433962 L118.1445,13 C118.682642,13 119.211343,12.990566 119.730603,12.9716981 C120.249863,12.9528302 120.719557,12.8427673 121.139685,12.6415094 C121.559813,12.4402516 121.918575,12.1163522 122.215969,11.6698113 C122.513363,11.2232704 122.713986,10.5660377 122.817838,9.69811321 L122.817838,9.69811321 L122.817838,9.48113208 L122.819609,9.31603774 L122.819609,9.31603774 L122.83023,8.96698113 L122.83023,8.96698113 L122.832,8.80188679 L122.832,8.58490566 L122.828128,8.26591981 C122.810057,7.53675314 122.728738,6.91352201 122.584171,6.39622642 C122.418952,5.80503145 122.173484,5.33333333 121.847767,4.98113208 C121.522049,4.62893082 121.120803,4.37735849 120.644028,4.22641509 C120.167253,4.0754717 119.61731,4 118.994198,4 L118.994198,4 Z" id="Combined-Shape" fill="#FFFFFF"></path>
                <polygon id="Path" fill="#FFFFFF" points="140.752 18 140.752 14.0501002 134.040889 14.0501002 134.040889 10.5691383 140.263111 10.5691383 140.263111 7.250501 134.040889 7.250501 134.040889 3.9498998 140.752 3.9498998 140.752 2.27373675e-13 128.752 2.27373675e-13 128.752 18"></polygon>
                <polygon id="Path" fill="#FFFFFF" points="14.1803276 66 14.1803276 41.4589178 20.6666758 66 29.195686 66 34.9294744 42.006012 35.1803276 41.4589178 35.1803276 66 45.752 66 45.752 27 30.0199181 27 24.9311809 49.3527054 24.752 49.1963928 19.7707713 27 3.752 27 3.752 66"></polygon>
                <path d="M60.4465378,26 L67.5158095,48 L61.5833051,48 L61.4056852,47.7959184 L61.3188488,47.5328798 C61.2977976,47.4724112 61.273457,47.4036281 61.2458273,47.3265306 C61.162938,47.0952381 61.0800487,46.8571429 60.9971594,46.6122449 C60.9142702,46.3673469 60.8313809,46.1360544 60.7484916,45.9183673 C60.6656023,45.7006803 60.6123163,45.537415 60.5886337,45.4285714 C60.564951,45.4013605 60.529427,45.3333333 60.4820617,45.2244898 L60.4820617,45.2244898 L60.4110138,45.0612245 L54.6206053,45.0612245 L53.448314,48 L47.5158095,48 L54.3008895,26.5714286 C54.3245721,26.4897959 54.3600961,26.3945578 54.4074614,26.2857143 C54.4548267,26.2312925 54.4903507,26.170068 54.5140333,26.1020408 C54.537716,26.0340136 54.57324,26 54.6206053,26 L54.6206053,26 L60.4465378,26 Z M57.0577596,33 L57.0226122,33.027535 C56.9885986,33.0616259 56.9579864,33.1153846 56.9307755,33.1888112 C56.8944943,33.2867133 56.86426,33.3496503 56.8400726,33.3776224 C56.7675102,33.6013986 56.6526198,33.979021 56.4954014,34.5104895 C56.3381829,35.041958 56.1688707,35.6013986 55.9874649,36.1888112 C55.806059,36.7762238 55.6367468,37.3426573 55.4795283,37.8881119 C55.3223099,38.4335664 55.2074195,38.8041958 55.1348571,39 L55.1348571,39 L58.944381,39 L57.0577596,33 Z" id="Combined-Shape" fill="#B00000"></path>
                <path d="M57.1102375,66.9976491 C57.1740945,66.9945146 57.2558314,66.9882455 57.3554483,66.9788419 C57.5048736,66.9647365 57.6657931,66.950631 57.8382069,66.9365256 C58.0106207,66.9224202 58.1715402,66.9012621 58.3209655,66.8730512 C58.4703908,66.8448404 58.5795862,66.8166295 58.6485517,66.7884187 L58.6485517,66.7884187 L58.6485517,66.6191537 C58.6485517,66.5345212 58.6025747,66.4075724 58.5106207,66.2383073 C58.4186667,66.0690423 58.3094713,65.8856719 58.1830345,65.688196 C58.0565977,65.4907201 57.9416552,65.3073497 57.8382069,65.1380846 C57.7347586,64.9688196 57.6715402,64.8418708 57.6485517,64.7572383 C57.5106207,64.3622866 57.3726897,63.840386 57.2347586,63.1915367 C57.0968276,62.5426875 57.0278621,62.0207869 57.0278621,61.6258352 C57.1198161,61.6258352 57.2634943,61.752784 57.4588966,62.0066815 C57.6542989,62.2605791 57.8956782,62.5356347 58.1830345,62.8318486 C58.4703908,63.1280624 58.7922299,63.3960653 59.1485517,63.6358575 C59.5048736,63.8756496 59.889931,63.9955457 60.3037241,63.9955457 C60.9014253,63.9955457 61.4186667,63.8192279 61.8554483,63.4665924 C62.2922299,63.1139569 62.6485517,62.6625835 62.9244138,62.1124722 C63.2002759,61.5623608 63.4071724,60.9487751 63.5451034,60.2717149 C63.6830345,59.5946548 63.752,58.9458055 63.752,58.325167 C63.752,57.4224202 63.6083218,56.6466221 63.3209655,55.9977728 C63.0336092,55.3489235 62.6657931,54.7564959 62.2175172,54.22049 C61.7692414,53.684484 61.2749885,53.1907944 60.7347586,52.7394209 C60.1945287,52.2880475 59.6715402,51.7943578 59.1657931,51.2583519 C58.7290115,50.8634001 58.3094713,50.355605 57.9071724,49.7349666 C57.5048736,49.1143281 57.1542989,48.5501114 56.8554483,48.0423163 L56.8554483,48.0423163 L56.752,48 C56.7290115,48 56.7175172,48.0070527 56.7175172,48.0211581 C56.7175172,48.0352635 56.706023,48.0423163 56.6830345,48.0423163 L56.6830345,48.0423163 L56.6485517,48.0423163 C56.1887816,48.606533 55.8094713,49.1707498 55.5106207,49.7349666 C55.2117701,50.2991834 54.7749885,50.8634001 54.2002759,51.4276169 C53.7175172,51.935412 53.2117701,52.4079436 52.6830345,52.8452116 C52.1542989,53.2824796 51.6715402,53.7550111 51.2347586,54.2628062 C50.797977,54.7706013 50.4416552,55.3418708 50.1657931,55.9766147 C49.889931,56.6113586 49.752,57.3659985 49.752,58.2405345 C49.752,58.8893838 49.8209655,59.5523385 49.9588966,60.2293987 C50.0968276,60.9064588 50.3094713,61.5200445 50.5968276,62.0701559 C50.8841839,62.6202673 51.2462529,63.0786934 51.6830345,63.4454343 C52.1198161,63.8121752 52.6370575,63.9955457 53.2347586,63.9955457 C53.6715402,63.9955457 54.0278621,63.9109131 54.3037241,63.7416481 C54.5795862,63.5723831 54.8324598,63.3608018 55.0623448,63.1069042 C55.2922299,62.8530067 55.5163678,62.5708983 55.7347586,62.2605791 C55.9531494,61.9502598 56.2117701,61.654046 56.5106207,61.3719376 L56.5106207,61.3719376 L56.5106207,61.5412027 C56.5106207,62.5850037 56.389931,63.4665924 56.1485517,64.1859688 C55.9071724,64.9053452 55.5336092,65.6458797 55.0278621,66.4075724 L55.0278621,66.4075724 L55.0278621,66.6191537 C55.0508506,66.6191537 55.1025747,66.6473645 55.1830345,66.7037862 C55.2634943,66.7602079 55.3267126,66.7884187 55.3726897,66.7884187 L55.3726897,66.7884187 L55.5106207,66.7884187 C55.5565977,66.7884187 55.6542989,66.8025241 55.8037241,66.830735 C55.9531494,66.8589458 56.1083218,66.8871566 56.2692414,66.9153675 C56.4301609,66.9435783 56.5853333,66.9647365 56.7347586,66.9788419 C56.8841839,66.9929473 56.9818851,67 57.0278621,67 L57.1102375,66.9976491 Z" id="Path" fill="#FFFFFF"></path>
                <path d="M91.002,67 C92.9305714,67 94.829381,66.8550725 96.6984286,66.5652174 C98.5674762,66.2753623 100.430571,65.8274045 102.287714,65.2213439 C102.430571,65.168643 102.632952,65.0895916 102.894857,64.9841897 C103.156762,64.8787879 103.406762,64.7799736 103.644857,64.687747 C103.882952,64.5955204 104.097238,64.5098814 104.287714,64.43083 C104.47819,64.3517787 104.573429,64.312253 104.573429,64.312253 L104.573429,64.312253 L104.752,64.1146245 L104.752,46.6837945 L94.7162857,46.7233202 L94.7162857,56.7233202 C94.7162857,56.7496706 94.5436667,56.7826087 94.1984286,56.8221344 C93.8531905,56.8616601 93.5734286,56.8945982 93.3591429,56.9209486 L93.3591429,56.9209486 L92.4305714,56.9209486 C91.1686667,56.9209486 90.0079524,56.6508564 88.9484286,56.1106719 C87.8889048,55.5704875 86.9722381,54.8458498 86.1984286,53.9367589 C85.424619,53.027668 84.8174762,51.9604743 84.377,50.7351779 C83.9365238,49.5098814 83.7162857,48.2121212 83.7162857,46.8418972 C83.7162857,45.4716733 83.9365238,44.1805007 84.377,42.9683794 C84.8174762,41.7562582 85.424619,40.7022398 86.1984286,39.8063241 C86.9722381,38.9104084 87.8889048,38.2055336 88.9484286,37.6916996 C90.0079524,37.1778656 91.1686667,36.9209486 92.4305714,36.9209486 C93.7639048,36.9209486 95.0674762,37.085639 96.3412857,37.4150198 C97.6150952,37.7444005 98.8948571,38.0671937 100.180571,38.3833992 L100.180571,38.3833992 L100.359143,38.3833992 L100.359143,38.3833992 L100.448429,38.284585 C100.484143,38.2450593 100.502,38.2121212 100.502,38.1857708 L100.502,38.1857708 L104.073429,30.1225296 C104.073429,30.0961792 104.079381,30.0698287 104.091286,30.0434783 C104.10319,30.0171278 104.109143,29.9776021 104.109143,29.9249012 C104.109143,29.8722003 104.10319,29.8129117 104.091286,29.7470356 C104.079381,29.6811594 104.013905,29.6218709 103.894857,29.56917 C101.871048,28.6469038 99.7877143,27.9881423 97.6448571,27.5928854 C95.502,27.1976285 93.3353333,27 91.1448571,27 C88.5258095,27 85.9900952,27.4545455 83.5377143,28.3636364 C81.0853333,29.2727273 78.9127143,30.5770751 77.0198571,32.2766798 C75.127,33.9762846 73.6091429,36.0513834 72.4662857,38.5019763 C71.3234286,40.9525692 70.752,43.7061924 70.752,46.7628458 C70.752,49.8458498 71.3115238,52.6324111 72.4305714,55.1225296 C73.549619,57.6126482 75.049619,59.740448 76.9305714,61.5059289 C78.8115238,63.2714097 80.9662857,64.6284585 83.3948571,65.5770751 C85.8234286,66.5256917 88.3591429,67 91.002,67 Z" id="Path" fill="#FFFFFF"></path>
                <polygon id="Path" fill="#FFFFFF" points="118.752 66 118.752 27 107.752 27 107.752 66"></polygon>
                <path d="M134.446538,26 L141.51581,48 L135.583305,48 L135.405685,47.7959184 L135.318849,47.5328798 C135.297798,47.4724112 135.273457,47.4036281 135.245827,47.3265306 C135.162938,47.0952381 135.080049,46.8571429 134.997159,46.6122449 C134.91427,46.3673469 134.831381,46.1360544 134.748492,45.9183673 C134.665602,45.7006803 134.612316,45.537415 134.588634,45.4285714 C134.564951,45.4013605 134.529427,45.3333333 134.482062,45.2244898 L134.482062,45.2244898 L134.411014,45.0612245 L128.620605,45.0612245 L127.448314,48 L121.51581,48 L128.300889,26.5714286 L128.328519,26.4852608 C128.34957,26.4247921 128.375885,26.3582766 128.407461,26.2857143 C128.454827,26.2312925 128.490351,26.170068 128.514033,26.1020408 C128.537716,26.0340136 128.57324,26 128.620605,26 L128.620605,26 L134.446538,26 Z M132.010141,33 L131.974993,33.027535 C131.94098,33.0616259 131.910367,33.1153846 131.883156,33.1888112 C131.846875,33.2867133 131.816641,33.3496503 131.792454,33.3776224 C131.719891,33.6013986 131.605001,33.979021 131.447782,34.5104895 C131.290564,35.041958 131.121252,35.6013986 130.939846,36.1888112 C130.75844,36.7762238 130.589128,37.3426573 130.431909,37.8881119 C130.274691,38.4335664 130.1598,38.8041958 130.087238,39 L130.087238,39 L133.896762,39 L132.010141,33 Z" id="Combined-Shape" fill="#B00000"></path>
                <path d="M133.110238,66.9976491 C133.174095,66.9945146 133.255831,66.9882455 133.355448,66.9788419 C133.504874,66.9647365 133.665793,66.950631 133.838207,66.9365256 C134.010621,66.9224202 134.17154,66.9012621 134.320966,66.8730512 C134.470391,66.8448404 134.579586,66.8166295 134.648552,66.7884187 L134.648552,66.7884187 L134.648552,66.6191537 C134.648552,66.5345212 134.602575,66.4075724 134.510621,66.2383073 C134.418667,66.0690423 134.309471,65.8856719 134.183034,65.688196 C134.056598,65.4907201 133.941655,65.3073497 133.838207,65.1380846 C133.734759,64.9688196 133.67154,64.8418708 133.648552,64.7572383 C133.510621,64.3622866 133.37269,63.840386 133.234759,63.1915367 C133.096828,62.5426875 133.027862,62.0207869 133.027862,61.6258352 C133.119816,61.6258352 133.263494,61.752784 133.458897,62.0066815 C133.654299,62.2605791 133.895678,62.5356347 134.183034,62.8318486 C134.470391,63.1280624 134.79223,63.3960653 135.148552,63.6358575 C135.504874,63.8756496 135.889931,63.9955457 136.303724,63.9955457 C136.901425,63.9955457 137.418667,63.8192279 137.855448,63.4665924 C138.29223,63.1139569 138.648552,62.6625835 138.924414,62.1124722 C139.200276,61.5623608 139.407172,60.9487751 139.545103,60.2717149 C139.683034,59.5946548 139.752,58.9458055 139.752,58.325167 C139.752,57.4224202 139.608322,56.6466221 139.320966,55.9977728 C139.033609,55.3489235 138.665793,54.7564959 138.217517,54.22049 C137.769241,53.684484 137.274989,53.1907944 136.734759,52.7394209 C136.194529,52.2880475 135.67154,51.7943578 135.165793,51.2583519 C134.729011,50.8634001 134.309471,50.355605 133.907172,49.7349666 C133.504874,49.1143281 133.154299,48.5501114 132.855448,48.0423163 L132.855448,48.0423163 L132.752,48 C132.729011,48 132.717517,48.0070527 132.717517,48.0211581 C132.717517,48.0352635 132.706023,48.0423163 132.683034,48.0423163 L132.683034,48.0423163 L132.648552,48.0423163 C132.188782,48.606533 131.809471,49.1707498 131.510621,49.7349666 C131.21177,50.2991834 130.774989,50.8634001 130.200276,51.4276169 C129.717517,51.935412 129.21177,52.4079436 128.683034,52.8452116 C128.154299,53.2824796 127.67154,53.7550111 127.234759,54.2628062 C126.797977,54.7706013 126.441655,55.3418708 126.165793,55.9766147 C125.889931,56.6113586 125.752,57.3659985 125.752,58.2405345 C125.752,58.8893838 125.820966,59.5523385 125.958897,60.2293987 C126.096828,60.9064588 126.309471,61.5200445 126.596828,62.0701559 C126.884184,62.6202673 127.246253,63.0786934 127.683034,63.4454343 C128.119816,63.8121752 128.637057,63.9955457 129.234759,63.9955457 C129.67154,63.9955457 130.027862,63.9109131 130.303724,63.7416481 C130.579586,63.5723831 130.83246,63.3608018 131.062345,63.1069042 C131.29223,62.8530067 131.516368,62.5708983 131.734759,62.2605791 C131.953149,61.9502598 132.21177,61.654046 132.510621,61.3719376 L132.510621,61.3719376 L132.510621,61.5412027 C132.510621,62.5850037 132.389931,63.4665924 132.148552,64.1859688 C131.907172,64.9053452 131.533609,65.6458797 131.027862,66.4075724 L131.027862,66.4075724 L131.027862,66.6191537 C131.050851,66.6191537 131.102575,66.6473645 131.183034,66.7037862 C131.263494,66.7602079 131.326713,66.7884187 131.37269,66.7884187 L131.37269,66.7884187 L131.510621,66.7884187 C131.556598,66.7884187 131.654299,66.8025241 131.803724,66.830735 C131.953149,66.8589458 132.108322,66.8871566 132.269241,66.9153675 C132.430161,66.9435783 132.585333,66.9647365 132.734759,66.9788419 C132.884184,66.9929473 132.981885,67 133.027862,67 L133.110238,66.9976491 Z" id="Path" fill="#FFFFFF"></path>
            </g>
        </g>
    </g>
</svg>