<?xml version="1.0" encoding="UTF-8"?>
<svg width="191px" height="41px" viewBox="0 0 191 41" version="1.1" xmlns="http://www.w3.org/2000/svg" xmlns:xlink="http://www.w3.org/1999/xlink">
    <title>magia_roja</title>
    <g id="App" stroke="none" stroke-width="1" fill="none" fill-rule="evenodd">
        <g id="Artboard" transform="translate(-257.000000, -445.000000)" fill="#B00000" fill-rule="nonzero">
            <g id="789A" transform="translate(257.000000, 445.000000)">
                <path d="M22,41 L22,40.9063927 C22.0606061,40.8439878 22.0909091,40.781583 22.0909091,40.7191781 C23.4848485,38.347793 25.1818182,36.1012177 27.1818182,33.9794521 C28.8181818,32.2945205 30.6212121,30.8436073 32.5909091,29.6267123 C34.5606061,28.4098174 36.3939394,27.1305175 38.0909091,25.7888128 C39.7878788,24.4471081 41.1969697,22.8869863 42.3181818,21.1084475 C43.4393939,19.3299087 44,17.0365297 44,14.2283105 C44,12.6681887 43.7878788,11.0456621 43.3636364,9.36073059 C42.9393939,7.67579909 42.3030303,6.16248097 41.4545455,4.82077626 C40.6060606,3.47907154 39.5151515,2.37138508 38.1818182,1.49771689 C36.8484848,0.624048706 35.2727273,0.187214612 33.4545455,0.187214612 C31.5151515,0.187214612 29.7878788,0.608447489 28.2727273,1.45091324 C26.7575758,2.293379 25.3636364,3.46347032 24.0909091,4.96118721 C23.6060606,5.52283105 23.2424242,6.13127854 23,6.78652968 L22.7272727,7.41577879 C22.5252525,7.81794351 22.2828283,8.18543886 22,8.51826484 C21.9393939,8.51826484 21.9090909,8.4870624 21.9090909,8.42465753 C21.8484848,8.42465753 21.8181818,8.40905632 21.8181818,8.37785388 C21.8181818,8.34665145 21.7878788,8.33105023 21.7272727,8.33105023 C21.7272727,8.20624049 21.6363636,7.94101979 21.4545455,7.53538813 C21.2727273,7.12975647 21.1212121,6.86453577 21,6.73972603 C21,6.61491629 20.8787879,6.3652968 20.6363636,5.99086758 C20.3939394,5.61643836 20.2424242,5.36681887 20.1818182,5.24200913 C19.0909091,3.55707763 17.7272727,2.26217656 16.0909091,1.35730594 C14.4545455,0.452435312 12.7272727,0 10.9090909,0 C8.48484848,0 6.45454545,0.748858447 4.81818182,2.24657534 C3.18181818,3.74429224 1.90909091,5.58523592 1,7.76940639 C0.939393939,7.89421613 0.848484848,8.11263318 0.727272727,8.42465753 C0.606060606,8.73668189 0.5,9.07990868 0.409090909,9.4543379 C0.318181818,9.82876712 0.227272727,10.1719939 0.136363636,10.4840183 C0.0454545455,10.7960426 0,11.0456621 0,11.2328767 L0,11.2328767 L0,17.5981735 C0,17.7229833 0.0909090909,18.06621 0.272727273,18.6278539 C0.454545455,19.1894977 0.606060606,19.5951294 0.727272727,19.8447489 C1.45454545,21.4672755 2.39393939,22.8401826 3.54545455,23.9634703 C4.6969697,25.086758 5.93939394,26.1164384 7.27272727,27.0525114 C8.60606061,27.9885845 9.95454545,28.8934551 11.3181818,29.7671233 C12.6818182,30.6407915 13.969697,31.6392694 15.1818182,32.7625571 C16.5757576,33.9482496 17.7878788,35.1807458 18.8181818,36.4600457 C19.8484848,37.7393455 20.8181818,39.1590563 21.7272727,40.7191781 L21.7272727,40.7191781 L22,41 Z M75.2272727,41 C75.523088,41 75.9076479,40.9547461 76.3809524,40.8642384 C76.8542569,40.7737307 77.0909091,40.5474614 77.0909091,40.1854305 C77.0909091,40.125092 76.9577922,39.9440765 76.6915584,39.6423841 C76.4253247,39.3406917 76.1147186,38.9786608 75.7597403,38.5562914 C75.4047619,38.133922 75.0793651,37.7266372 74.7835498,37.3344371 C74.4877345,36.9422369 74.3102453,36.6556291 74.2510823,36.4746137 C73.5411255,35.267844 73.008658,33.9705666 72.6536797,32.5827815 C72.2987013,31.1949963 72.1212121,29.7770419 72.1212121,28.3289183 L72.1212121,26.8807947 C72.1803752,26.8807947 72.2099567,26.8506255 72.2099567,26.790287 C72.2099567,26.66961 72.2395382,26.6092715 72.2987013,26.6092715 L72.3874459,26.6092715 C72.6832612,26.6092715 72.9938672,26.9562178 73.3192641,27.6501104 C73.6446609,28.3440029 73.8665224,28.8417954 73.9848485,29.1434879 C74.3398268,29.6865342 74.8279221,30.2748344 75.4491342,30.9083885 C76.0703463,31.5419426 76.5584416,32.0095659 76.9134199,32.3112583 C78.8066378,34.0007358 80.9660895,34.8454746 83.3917749,34.8454746 C84.8708514,34.8454746 86.1576479,34.4834437 87.2521645,33.7593819 C88.3466811,33.0353201 89.2489177,32.1000736 89.9588745,30.9536424 C90.6688312,29.8072112 91.1865079,28.540103 91.5119048,27.1523179 C91.8373016,25.7645327 92,24.4069169 92,23.0794702 C92,21.933039 91.9112554,20.8016924 91.7337662,19.6854305 C91.5562771,18.5691685 91.2160895,17.5735835 90.7132035,16.6986755 C90.2103175,15.8237675 89.5595238,15.1147903 88.7608225,14.5717439 C87.9621212,14.0286976 86.9415584,13.7571744 85.6991342,13.7571744 C84.3383838,13.7571744 83.2142857,13.9532745 82.3268398,14.3454746 C81.4393939,14.7376748 80.4632035,15.3561442 79.3982684,16.200883 L79.1320346,16.200883 C79.0728716,16.1405445 79.0137085,16.1103753 78.9545455,16.1103753 C79.3095238,15.2656365 79.6792929,14.5114054 80.0638528,13.8476821 C80.4484127,13.1839588 80.7886003,12.5353201 81.0844156,11.901766 C81.3802309,11.2682119 81.6316739,10.589404 81.8387446,9.86534216 C82.0458153,9.14128035 82.1493506,8.29654157 82.1493506,7.33112583 C82.1493506,5.82266372 81.8535354,4.60080942 81.2619048,3.66556291 C80.6702742,2.73031641 79.9011544,1.99116998 78.9545455,1.44812362 C78.0079365,0.905077263 76.9282107,0.527961737 75.715368,0.316777042 C74.5025253,0.105592347 73.2748918,0 72.0324675,0 C69.7842713,0 67.6839827,0.422369389 65.7316017,1.26710817 C63.7792208,2.11184695 62.3888889,3.68064753 61.5606061,5.97350993 C61.501443,6.0941869 61.4718615,6.36571008 61.4718615,6.78807947 L61.4718615,7.60264901 C61.4718615,9.29212656 61.9451659,10.9212656 62.8917749,12.4900662 C63.1875902,12.9727741 63.6017316,13.3951435 64.1341991,13.7571744 C64.6666667,14.1192053 64.9329004,14.5415747 64.9329004,15.0242826 L64.8441558,15.0242826 C63.6608947,14.3605592 62.5811688,13.772259 61.6049784,13.2593819 C60.6287879,12.7465048 59.489899,12.4900662 58.1883117,12.4900662 L56.8571429,12.4900662 C54.8455988,13.2744665 53.3665224,14.5566593 52.4199134,16.3366446 C51.4733045,18.1166299 51,20.062546 51,22.1743929 C51,23.5018396 51.1774892,24.8443709 51.5324675,26.2019868 C51.8874459,27.5596026 52.4199134,28.781457 53.1298701,29.8675497 C53.8398268,30.9536424 54.7420635,31.843635 55.8365801,32.5375276 C56.9310967,33.2314202 58.1883117,33.5783664 59.6082251,33.5783664 C62.0930736,33.5783664 64.015873,32.9146431 65.3766234,31.5871965 C66.7373737,30.2597498 68.038961,28.6004415 69.2813853,26.6092715 C69.5180375,26.3075791 69.7842713,26.1567329 70.0800866,26.1567329 C70.2575758,26.1567329 70.3463203,26.2170714 70.3463203,26.3377483 C70.3463203,26.4584253 70.3611111,26.6997792 70.3906926,27.0618102 C70.4202742,27.4238411 70.4350649,27.665195 70.4350649,27.785872 C70.4350649,29.4753495 70.2871573,31.2553348 69.991342,33.1258278 C69.6955267,34.9963208 69.0151515,36.5952907 67.9502165,37.9227373 C67.8910534,38.0434143 67.728355,38.1942605 67.4621212,38.3752759 C67.1958874,38.5562914 66.9148629,38.7373068 66.6190476,38.9183223 C66.3232323,39.0993377 66.0569986,39.2803532 65.8203463,39.4613687 C65.5836941,39.6423841 65.465368,39.7328918 65.465368,39.7328918 C65.4062049,39.9139073 65.524531,40.0798381 65.8203463,40.2306843 C66.1161616,40.3815305 66.4563492,40.5172921 66.8409091,40.6379691 C67.225469,40.7586461 67.5952381,40.8491538 67.9502165,40.9094923 C68.3051948,40.9698308 68.541847,41 68.6601732,41 L75.2272727,41 Z M126.843847,38 C126.902447,38 126.975698,37.9412793 127.063599,37.823838 C127.151499,37.7063966 127.25405,37.5889553 127.371251,37.471514 C128.543261,36.1209386 129.715271,34.7850433 130.88728,33.4638282 C132.05929,32.1426132 133.2313,30.8360782 134.403309,29.5442235 C135.75112,28.0174861 137.084281,26.5494693 138.402792,25.1401732 C139.721303,23.7308772 141.025164,22.2628604 142.314374,20.736123 C142.607377,20.3250783 142.812478,19.8846733 142.929679,19.4149079 C143.04688,19.0038632 143.01758,18.6221788 142.841779,18.2698548 C142.665977,17.9175308 142.431575,17.5945671 142.138573,17.3009638 C142.079972,17.2422431 141.933471,17.0660811 141.699069,16.7724777 C141.464667,16.4788744 141.200965,16.185271 140.907963,15.8916677 C140.61496,15.5980643 140.336608,15.304461 140.072906,15.0108576 C139.809204,14.7172543 139.618752,14.4823716 139.501551,14.3062096 L139.501551,14.3062096 L139.149948,13.9538856 C137.274733,11.7812208 135.399517,9.63791631 133.524302,7.52397218 C131.649087,5.41002806 129.773871,3.32544427 127.898656,1.27022081 L127.898656,1.27022081 L127.547053,0.917896792 L127.547053,0.917896792 L127.283351,0.653653776 C126.990348,0.360050425 126.814547,0.21324875 126.755946,0.21324875 C126.697346,0.21324875 126.624095,0.183888414 126.536194,0.125167744 C126.448294,0.0664470741 126.375043,0.0370867391 126.316443,0.0370867391 C125.730438,-0.0803546013 125.217684,0.0811272417 124.77818,0.521532268 C124.338676,0.961937294 123.972423,1.38766215 123.679421,1.79870684 C120.046191,5.73299174 116.412961,9.81407832 112.779731,14.0419666 C112.135126,14.6878939 111.505171,15.3485015 110.889866,16.0237892 C110.27456,16.6990769 109.703206,17.3890448 109.175801,18.0936928 C109.117201,18.0936928 109.087901,18.1524135 109.087901,18.2698548 L109.087901,18.2698548 L109.087901,18.3579358 C109.0293,18.5340978 109,18.7983409 109,19.1506649 C109,19.5029889 109.0293,19.7378716 109.087901,19.8553129 C109.087901,19.9140336 109.131851,20.0461551 109.219752,20.2516774 C109.307653,20.4571998 109.410203,20.6186816 109.527404,20.736123 C109.586005,20.8535643 109.849707,21.1618478 110.318511,21.6609735 C110.787315,22.1600992 111.080317,22.4683827 111.197518,22.5858241 L111.280535,22.6739051 C111.352158,22.7521993 111.456337,22.8696407 111.593071,23.0262291 C111.798173,23.2611118 111.930024,23.4079135 111.988625,23.4666341 C112.047225,23.5840755 112.105826,23.6721565 112.164426,23.7308772 L112.164426,23.7308772 L112.398828,23.9657598 L112.398828,23.9657598 C113.766173,25.4533501 115.1091,26.9311537 116.427611,28.3991704 C117.746122,29.8671872 119.079283,31.3645643 120.427094,32.8913017 C121.1303,33.7133911 121.804205,34.5061201 122.448811,35.2694888 C123.093416,36.0328575 123.825922,36.7668659 124.646329,37.471514 C124.704929,37.5889553 124.80748,37.7063966 124.953981,37.823838 C125.100483,37.9412793 125.203033,38 125.261634,38 L125.261634,38 L126.843847,38 Z M172.748768,41 C172.935961,41 173.232348,40.984781 173.637931,40.954343 C174.043514,40.923905 174.480296,40.893467 174.948276,40.863029 C175.416256,40.8325909 175.853038,40.7869339 176.258621,40.7260579 C176.664204,40.6651819 176.960591,40.6043059 177.147783,40.5434298 L177.147783,40.1781737 C177.147783,39.9955457 177.022989,39.7216036 176.773399,39.3563474 C176.52381,38.9910913 176.227422,38.5953972 175.884236,38.169265 C175.541051,37.7431329 175.229064,37.3474388 174.948276,36.9821826 C174.667488,36.6169265 174.495895,36.3429844 174.433498,36.1603563 C174.059113,35.3080921 173.684729,34.1818857 173.310345,32.7817372 C172.935961,31.3815887 172.748768,30.2553823 172.748768,29.403118 C172.998358,29.403118 173.388342,29.6770601 173.918719,30.2249443 C174.449097,30.7728285 175.104269,31.3663697 175.884236,32.0055679 C176.664204,32.6447661 177.537767,33.2230883 178.504926,33.7405345 C179.472085,34.2579807 180.517241,34.5167038 181.640394,34.5167038 C183.262726,34.5167038 184.666667,34.1362287 185.852217,33.3752784 C187.037767,32.6143281 188.004926,31.6403118 188.753695,30.4532294 C189.502463,29.266147 190.064039,27.9420935 190.438424,26.481069 C190.812808,25.0200445 191,23.6198961 191,22.2806236 C191,20.3325909 190.610016,18.6585004 189.830049,17.2583519 C189.050082,15.8582034 188.051724,14.579807 186.834975,13.4231626 C185.618227,12.2665182 184.276683,11.2011878 182.810345,10.2271715 C181.344007,9.25315516 179.924466,8.1878248 178.551724,7.0311804 C177.366174,6.17891611 176.227422,5.08314774 175.135468,3.74387528 C174.043514,2.40460282 173.091954,1.18708241 172.280788,0.0913140312 L172,0 C171.937603,0 171.906404,0.0152190052 171.906404,0.0456570156 C171.906404,0.076095026 171.875205,0.0913140312 171.812808,0.0913140312 L171.719212,0.0913140312 C170.471264,1.30883445 169.441708,2.52635486 168.630542,3.74387528 C167.819376,4.96139569 166.633826,6.17891611 165.073892,7.39643653 C163.763547,8.4922049 162.390805,9.51187825 160.955665,10.4554566 C159.520525,11.3990349 158.210181,12.4187082 157.024631,13.5144766 C155.83908,14.610245 154.871921,15.8429844 154.123153,17.2126949 C153.374384,18.5824053 153,20.2108389 153,22.0979955 C153,23.498144 153.187192,24.9287305 153.561576,26.389755 C153.935961,27.8507795 154.513136,29.174833 155.293103,30.3619154 C156.073071,31.5489978 157.055829,32.5382331 158.241379,33.3296214 C159.426929,34.1210097 160.83087,34.5167038 162.453202,34.5167038 C163.638752,34.5167038 164.605911,34.3340757 165.35468,33.9688196 C166.103448,33.6035635 166.789819,33.1469933 167.413793,32.5991091 C168.037767,32.0512249 168.646141,31.4424647 169.238916,30.7728285 C169.831691,30.1031923 170.533662,29.4639941 171.344828,28.8552339 L171.344828,29.22049 C171.344828,31.4729027 171.017241,33.3752784 170.362069,34.9276169 C169.706897,36.4799555 168.692939,38.077951 167.320197,39.7216036 L167.320197,40.1781737 C167.382594,40.1781737 167.522989,40.2390497 167.741379,40.3608018 C167.95977,40.4825538 168.131363,40.5434298 168.256158,40.5434298 L168.630542,40.5434298 C168.755337,40.5434298 169.020525,40.5738679 169.426108,40.6347439 C169.831691,40.6956199 170.252874,40.7564959 170.689655,40.8173719 C171.126437,40.878248 171.547619,40.923905 171.953202,40.954343 C172.350512,40.9841601 172.350316,41 172.748768,41 Z"></path>
            </g>
        </g>
    </g>
</svg>