<?xml version="1.0" encoding="UTF-8"?>
<svg width="41px" height="41px" viewBox="0 0 41 41" version="1.1" xmlns="http://www.w3.org/2000/svg" xmlns:xlink="http://www.w3.org/1999/xlink">
    <title>trebolRojo</title>
    <g id="Symbols" stroke="none" stroke-width="1" fill="none" fill-rule="evenodd">
        <g id="back" transform="translate(-34.000000, -94.000000)" fill="#B00000" fill-rule="nonzero">
            <g id="Path" transform="translate(34.000000, 94.000000)">
                <path d="M24.2272727,41 C24.523088,41 24.9076479,40.9547461 25.3809524,40.8642384 C25.8542569,40.7737307 26.0909091,40.5474614 26.0909091,40.1854305 C26.0909091,40.125092 25.9577922,39.9440765 25.6915584,39.6423841 C25.4253247,39.3406917 25.1147186,38.9786608 24.7597403,38.5562914 C24.4047619,38.133922 24.0793651,37.7266372 23.7835498,37.3344371 C23.4877345,36.9422369 23.3102453,36.6556291 23.2510823,36.4746137 C22.5411255,35.267844 22.008658,33.9705666 21.6536797,32.5827815 C21.2987013,31.1949963 21.1212121,29.7770419 21.1212121,28.3289183 L21.1212121,26.8807947 C21.1803752,26.8807947 21.2099567,26.8506255 21.2099567,26.790287 C21.2099567,26.66961 21.2395382,26.6092715 21.2987013,26.6092715 L21.3874459,26.6092715 C21.6832612,26.6092715 21.9938672,26.9562178 22.3192641,27.6501104 C22.6446609,28.3440029 22.8665224,28.8417954 22.9848485,29.1434879 C23.3398268,29.6865342 23.8279221,30.2748344 24.4491342,30.9083885 C25.0703463,31.5419426 25.5584416,32.0095659 25.9134199,32.3112583 C27.8066378,34.0007358 29.9660895,34.8454746 32.3917749,34.8454746 C33.8708514,34.8454746 35.1576479,34.4834437 36.2521645,33.7593819 C37.3466811,33.0353201 38.2489177,32.1000736 38.9588745,30.9536424 C39.6688312,29.8072112 40.1865079,28.540103 40.5119048,27.1523179 C40.8373016,25.7645327 41,24.4069169 41,23.0794702 C41,21.933039 40.9112554,20.8016924 40.7337662,19.6854305 C40.5562771,18.5691685 40.2160895,17.5735835 39.7132035,16.6986755 C39.2103175,15.8237675 38.5595238,15.1147903 37.7608225,14.5717439 C36.9621212,14.0286976 35.9415584,13.7571744 34.6991342,13.7571744 C33.3383838,13.7571744 32.2142857,13.9532745 31.3268398,14.3454746 C30.4393939,14.7376748 29.4632035,15.3561442 28.3982684,16.200883 L28.1320346,16.200883 C28.0728716,16.1405445 28.0137085,16.1103753 27.9545455,16.1103753 C28.3095238,15.2656365 28.6792929,14.5114054 29.0638528,13.8476821 C29.4484127,13.1839588 29.7886003,12.5353201 30.0844156,11.901766 C30.3802309,11.2682119 30.6316739,10.589404 30.8387446,9.86534216 C31.0458153,9.14128035 31.1493506,8.29654157 31.1493506,7.33112583 C31.1493506,5.82266372 30.8535354,4.60080942 30.2619048,3.66556291 C29.6702742,2.73031641 28.9011544,1.99116998 27.9545455,1.44812362 C27.0079365,0.905077263 25.9282107,0.527961737 24.715368,0.316777042 C23.5025253,0.105592347 22.2748918,0 21.0324675,0 C18.7842713,0 16.6839827,0.422369389 14.7316017,1.26710817 C12.7792208,2.11184695 11.3888889,3.68064753 10.5606061,5.97350993 C10.501443,6.0941869 10.4718615,6.36571008 10.4718615,6.78807947 L10.4718615,7.60264901 C10.4718615,9.29212656 10.9451659,10.9212656 11.8917749,12.4900662 C12.1875902,12.9727741 12.6017316,13.3951435 13.1341991,13.7571744 C13.6666667,14.1192053 13.9329004,14.5415747 13.9329004,15.0242826 L13.8441558,15.0242826 C12.6608947,14.3605592 11.5811688,13.772259 10.6049784,13.2593819 C9.62878788,12.7465048 8.48989899,12.4900662 7.18831169,12.4900662 L5.85714286,12.4900662 C3.84559885,13.2744665 2.36652237,14.5566593 1.41991342,16.3366446 C0.473304473,18.1166299 0,20.062546 0,22.1743929 C0,23.5018396 0.177489177,24.8443709 0.532467532,26.2019868 C0.887445887,27.5596026 1.41991342,28.781457 2.12987013,29.8675497 C2.83982684,30.9536424 3.74206349,31.843635 4.83658009,32.5375276 C5.93109668,33.2314202 7.18831169,33.5783664 8.60822511,33.5783664 C11.0930736,33.5783664 13.015873,32.9146431 14.3766234,31.5871965 C15.7373737,30.2597498 17.038961,28.6004415 18.2813853,26.6092715 C18.5180375,26.3075791 18.7842713,26.1567329 19.0800866,26.1567329 C19.2575758,26.1567329 19.3463203,26.2170714 19.3463203,26.3377483 C19.3463203,26.4584253 19.3611111,26.6997792 19.3906926,27.0618102 C19.4202742,27.4238411 19.4350649,27.665195 19.4350649,27.785872 C19.4350649,29.4753495 19.2871573,31.2553348 18.991342,33.1258278 C18.6955267,34.9963208 18.0151515,36.5952907 16.9502165,37.9227373 C16.8910534,38.0434143 16.728355,38.1942605 16.4621212,38.3752759 C16.1958874,38.5562914 15.9148629,38.7373068 15.6190476,38.9183223 C15.3232323,39.0993377 15.0569986,39.2803532 14.8203463,39.4613687 C14.5836941,39.6423841 14.465368,39.7328918 14.465368,39.7328918 C14.4062049,39.9139073 14.524531,40.0798381 14.8203463,40.2306843 C15.1161616,40.3815305 15.4563492,40.5172921 15.8409091,40.6379691 C16.225469,40.7586461 16.5952381,40.8491538 16.9502165,40.9094923 C17.3051948,40.9698308 17.541847,41 17.6601732,41 L24.2272727,41 Z"></path>
            </g>
        </g>
    </g>
</svg>